<svg height="2500" viewBox="0 0 354.25 348.5" width="2500" xmlns="http://www.w3.org/2000/svg"><circle cx="315" cy="174.25" r="39.25" fill="#000000"/><circle cx="215" cy="24.25" r="24.25" fill="#000000"/><circle cx="104.5" cy="174.25" r="24.25" fill="#000000"/><circle cx="155.12" cy="88.75" r="24.25" fill="#000000"/><circle cx="155.12" cy="259.75" r="24.25" fill="#000000"/><circle cx="215" cy="324.25" r="24.25" fill="#000000"/><circle cx="15" cy="174.25" r="15" fill="#000000"/><circle cx="115" cy="324.25" r="15" fill="#000000"/><circle cx="115" cy="24.25" r="15" fill="#000000"/><circle cx="72.19" cy="88.75" r="15" fill="#000000"/><circle cx="72.19" cy="259.75" r="15" fill="#000000"/><circle cx="208.5" cy="174.25" r="31.75" fill="#000000"/><circle cx="261.39" cy="93.84" r="31.75" fill="#000000"/><circle cx="261.39" cy="254.66" r="31.75" fill="#000000"/><polyline points="215 24.25 265 99.25 315 174.25 15 174.25" fill="none" stroke="#000000" stroke-miterlimit="10" stroke-width="13.8"/><line x1="115" y1="24.25" x2="261.39" y2="254.66" fill="none" stroke="#000000" stroke-miterlimit="10" stroke-width="13.8"/><line x1="261.39" y1="93.84" x2="115" y2="324.25" fill="none" stroke="#000000" stroke-miterlimit="10" stroke-width="13.8"/><line x1="72.19" y1="88.75" x2="265" y2="88.75" fill="none" stroke="#000000" stroke-miterlimit="10" stroke-width="13.8"/><line x1="261.39" y1="259.75" x2="72.19" y2="259.75" fill="none" stroke="#000000" stroke-miterlimit="10" stroke-width="13.8"/><line x1="315" y1="174.25" x2="215" y2="324.25" fill="none" stroke="#000000" stroke-miterlimit="10" stroke-width="13.8"/></svg>