<svg height="2500" viewBox="0 0 387.42 335.97" width="2500" xmlns="http://www.w3.org/2000/svg"><path d="M383.3,163.96l-33.75-.19c-5.77-.03-10.5-3.82-13.3-8.59-8.58-14.62-23.8-21.6-39.97-15.32l-19.95-29.24c8.38-5.62,12.25-15,10.29-24.81-1.67-8.37-7.43-15.52-15.34-19.01-8.08-3.57-17.31-2.51-24.73,2.6-6.42,4.42-10.76,12.04-11.05,20.59l-66.72-.02c-.94-3.9-2.84-6.83-5.74-9.42l27.41-42.03c5.91,3.02,12.93,3.39,19.03.56,6.23-2.9,10.48-8.81,11.47-14.77,1.23-7.4-1.21-14.07-6.57-18.93-6.01-5.46-14.39-6.93-22.2-3.68-6.41,2.67-11.59,8.94-12.52,16.69-.81,6.81,2.14,13.14,6.99,17.77l-27.55,42.18c-4.43-1.61-8.32-1.52-12.65-.05l-34.19-49.08c4.49-4.83,4.17-11.95-.49-16.26-4.43-4.09-11.4-3.76-15.56.76-4.1,4.47-3.94,11.53.69,15.74,3.12,2.83,7.32,3.54,11.55,1.72l34.07,49.25c-3.09,2.71-4.81,5.75-5.81,9.55h-62.03c-.87-3.94-3.53-6.69-6.29-7.93-3.45-1.55-7.15-1.25-10.15.73-4.34,2.85-6.32,8.2-4.55,12.99,1.69,4.56,6.25,7.84,11.49,7.32,4.7-.47,8.72-4.04,9.73-9.09h61.6c.39,5.75,3.56,10.73,8.14,13.18,5.2,2.78,10.91,2.52,16.01-.53l30.07,43.71c-4.56,3.54-7.86,8-8.87,14.07l-57.46.02c-1.98-10.02-10.38-17.37-20.56-17.31-10.16.05-18.18,7.63-19.99,17.29H22.28c-1.22-5.04-5.44-9.14-10.86-9.16-5.93-.02-10.45,4.44-11.31,10.25-.91,6.14,3.78,11.75,9.74,12.51,5.97.75,11.55-3.14,12.52-9.38h61.42c.53,11.8,10.33,20.15,22.05,19.32,10.15-.72,18.26-8.93,18.75-19.32h57.15c.21,6.52,3.02,11.78,8.25,15.94l-30.11,45.56c-8.31-4.61-17.83-1.33-22.04,6.99h-62.98c-.54-4.83-4.02-8.4-7.82-9.6-4.79-1.52-9.28.48-11.85,3.97-2.83,3.85-2.94,8.86-.07,12.66,2.7,3.57,6.82,5.17,11.35,4.29,3.51-.68,6.78-3.45,8.28-7.49l61.86.06c-.93,5.86.67,10.7,4.14,14.68l-31.52,47.59c-3.53-1.56-7.16-1.5-10.62.51-2.42,1.41-4.6,4.29-5.2,7.93-.65,3.96.88,7.38,3.37,9.83,2.48,2.45,5.79,3.54,9.47,3.21,4.51-.41,7.97-3.5,9.31-7.26,1.53-4.28.35-8.36-2.61-11.69l31.24-47.33c5.68,3.05,12.1,3.02,17.72-.54l28.2,41.07c-8.65,6.5-10.72,18.19-4.89,27.2,3.39,5.24,8.35,8.46,14.53,9.45,12.58,2.02,24.33-7.08,24.67-20,.2-7.42-4-13.88-9.61-17.59-6.24-4.13-13.82-4.29-20.83-1.2l-28.54-41.56c6.05-6.96,5.09-16.9-1.67-22.79l30.17-45.83c6.82,2.87,14.18,2.48,20.53-1.56l29.19,42.56c-9.84,8.06-12.34,21.29-6.4,32.28,4.89,9.04,14.53,14.19,24.82,13.62,9.59-.53,18.76-6.71,22.56-16.07,2.28-5.62,2.26-11.71.71-17.45-2.04-5.76-5.64-10.22-10.77-14.09l19.61-30.55c15.73,7.87,34.05,1.45,41.99-13.92,2.4-4.64,6.9-8.43,12.47-8.47l34.78-.23c2.41-.02,4.03-2.6,3.99-4.45-.03-1.71-1.7-4.43-4.11-4.44ZM194.91,148.7l-30.68-44.63c2.83-2.73,4.33-6.09,4.73-10.07h66.73c.8,5.24,2.96,9.98,6.75,13.91l-27.92,42.86c-5.91-3.93-12.78-4.94-19.6-2.07ZM270.67,223.86c-7.74-2.76-15.64-2.6-23.22,1.53l-29.49-42.83c3.47-4.11,5.73-8.27,5.87-13.91h52.67c.3,10.34,5.37,19.19,13.62,24.75l-19.46,30.46ZM276.65,164.42l-53.03.03c-1-4.14-2.59-7.57-5.78-10.67l28-42.87c8.29,5.63,18.14,6.11,26.71,1.89l19.55,28.75c-8.47,4.58-14.12,12.52-15.46,22.88Z" fill="#000000"/></svg>